<svg width="128" height="128" viewBox="0 0 24 24" xmlns="http://www.w3.org/2000/svg">
  <path fill="#4FCF8D" d="M17.26.69a.5.5 0 0 0-.72.02L12 6.18l-4.53-5.47A.5.5 0 0 0 6.74.69L0 13.5h7.5L12 4.5l4.5 9H24L17.26.69Z"/>
  <path fill="#43B883" d="m12 4.5l-4.5 9H24L17.26.69a.5.5 0 0 0-.72.02L12 6.18Z"/>
  <path fill="#349A79" d="M7.5 13.5H0L6.74.69a.5.5 0 0 1 .73.02L12 6.18L7.5 13.5Z"/>
  <path fill="#FDBA27" d="M12 17.5a5.5 5.5 0 0 1-5.5-5.5h11A5.5 5.5 0 0 1 12 17.5Z"/>
  <path fill="#F0A81C" d="M12 17.5a5.5 5.5 0 0 1 5.5-5.5H6.5A5.5 5.5 0 0 1 12 17.5Z"/>
  <path fill="#E0920C" d="M12 17.5a5.5 5.5 0 0 0 5.5-5.5h-11A5.5 5.5 0 0 0 12 17.5Z"/>
</svg>
